<?xml version="1.0" encoding="UTF-8"?><svg id="uuid-4ab8c080-ec1a-4f92-9afe-7925fb6ce8d6" xmlns="http://www.w3.org/2000/svg" viewBox="0 0 53 53"><defs><style>.uuid-c6d5a549-6044-4496-b485-fb06d4bcdb47{fill:none;stroke:#007dc4;stroke-linecap:round;stroke-linejoin:round;stroke-width:2px;}</style></defs><path class="uuid-c6d5a549-6044-4496-b485-fb06d4bcdb47" d="M13.89,13.89c1.35-1.35,2.75-2.6,4.17-3.75h3.38c1.34,0,2.43-1.09,2.43-2.43h0c0-.5-.15-.96-.41-1.34C33.07,.64,42.9-.27,48.08,4.92c6.96,6.96,2.94,22.27-8.98,34.19-11.92,11.92-27.23,15.94-34.19,8.98C.9,44.07,.54,37.3,3.23,29.99h1.2c1.34,0,2.43-1.09,2.43-2.43h0c0-1.02-.63-1.89-1.52-2.25,.93-1.75,2.03-3.51,3.28-5.24h2.34c1.34,0,2.43-1.09,2.43-2.43h0c0-.86-.45-1.61-1.12-2.05,.52-.57,1.07-1.14,1.62-1.7h0Zm9.53-7.5c4.69,.62,8.88,1.89,12.17,3.61,2.26,1.18,7.26,4.76,7.26,7.68,0,1.33-1.08,2.41-2.41,2.41-.57,0-1.09-.2-1.5-.53-1.18-.94-1.31-2.22-3.76-3.85-4.19-2.79-10.46-4.71-17.62-5.16M5.44,25.12c6.08,.38,11.52,1.81,15.6,3.94,2.26,1.18,7.26,4.76,7.26,7.68,0,1.33-1.08,2.41-2.41,2.41-.57,0-1.09-.2-1.5-.53-1.18-.94-1.31-2.22-3.76-3.85-4.12-2.74-10.25-4.64-17.26-5.14M12.34,15.51c6.81,.18,12.93,1.68,17.4,4.02,2.26,1.18,7.26,4.76,7.26,7.68,0,1.33-1.08,2.41-2.41,2.41-.57,0-1.09-.2-1.5-.53-1.18-.94-1.31-2.22-3.76-3.85-4.77-3.17-12.24-5.23-20.65-5.26"/></svg>