<?xml version="1.0" encoding="UTF-8"?><svg id="uuid-c8f49cd4-0606-4808-a29e-b51f114dbd4f" xmlns="http://www.w3.org/2000/svg" viewBox="0 0 53 53"><defs><style>.uuid-4b9b75f8-4028-4e7e-a3c3-a806b00f70ab,.uuid-c905cddc-1d84-49cd-96ff-961a8e309656{fill:none;stroke:#007dc4;stroke-linecap:round;stroke-linejoin:round;stroke-width:2px;}.uuid-c905cddc-1d84-49cd-96ff-961a8e309656{fill-rule:evenodd;}</style></defs><path class="uuid-4b9b75f8-4028-4e7e-a3c3-a806b00f70ab" d="M18.49,11.27l-7.48-6.13c-3.07,2.24-4.45,9.97-4.5,13.6-.01,1.01-.02,2-.01,2.97-.73,2.01-1.12,4.17-1.12,6.41,0,10.98,9.46,19.88,21.12,19.88s21.12-8.9,21.12-19.88c0-2.76-.6-5.39-1.68-7.78,0-.53,0-1.06-.01-1.6-.09-6.42-2.04-11.8-4.5-13.6l-7.37,5.96c-2.35-.85-4.82-1.31-7.57-1.31s-5.54,.53-8.01,1.48h0Z"/><path class="uuid-c905cddc-1d84-49cd-96ff-961a8e309656" d="M19.59,24.64c.53,0,.95,.43,.95,.97s-.43,.97-.95,.97-.95-.43-.95-.97,.43-.97,.95-.97h0Z"/><path class="uuid-c905cddc-1d84-49cd-96ff-961a8e309656" d="M33.41,24.64c.53,0,.95,.43,.95,.97s-.43,.97-.95,.97-.95-.43-.95-.97,.43-.97,.95-.97h0Z"/><path class="uuid-4b9b75f8-4028-4e7e-a3c3-a806b00f70ab" d="M26.59,35.51l-2.39-3.83h4.59l-2.2,3.83m10.97-3.49l13.94-2.32m-13.94,5.73l12.48-.43m-34.6-2.98L1.5,29.7m13.94,5.73l-12.48-.43m29.81,.91c0,1.77-1.41,3.2-3.15,3.2-1.59,0-2.91-1.2-3.12-2.76-.21,1.56-1.53,2.76-3.12,2.76-1.74,0-3.15-1.43-3.15-3.2"/></svg>