<?xml version="1.0" encoding="UTF-8"?><svg id="uuid-b1750f6e-6e7f-42c9-863f-beac217a56b5" xmlns="http://www.w3.org/2000/svg" viewBox="0 0 53 53"><defs><style>.uuid-636a2e6d-b104-42bd-9b22-40809746183a{fill:none;stroke:#007dc4;stroke-linecap:round;stroke-linejoin:round;stroke-width:2px;}</style></defs><polyline class="uuid-636a2e6d-b104-42bd-9b22-40809746183a" points="32.35 24.37 28.1 50.97 7.88 50.97 3.63 24.37"/><line class="uuid-636a2e6d-b104-42bd-9b22-40809746183a" x1="1.5" y1="24.37" x2="34.48" y2="24.37"/><line class="uuid-636a2e6d-b104-42bd-9b22-40809746183a" x1="1.5" y1="28.63" x2="7.88" y2="28.63"/><line class="uuid-636a2e6d-b104-42bd-9b22-40809746183a" x1="28.1" y1="28.63" x2="34.48" y2="28.63"/><path class="uuid-636a2e6d-b104-42bd-9b22-40809746183a" d="M28.84,24.74c0-.12-.02-.25-.03-.37-.26-2.88-.95-5.54,0-7.77,1.44-3.43,2.47-5.89,2.47-5.89l1.39-.57,1.65-3.92c.45-1.08-.05-2.33-1.14-2.79l-2.94-1.24c-1.08-.45-2.33,.05-2.79,1.14l-1.65,3.92,.57,1.39s-1.03,2.45-2.47,5.89c-.98,2.33-3.51,3.68-5.83,5.63,0,0-2.39,1.84-4.41,4.2"/><line class="uuid-636a2e6d-b104-42bd-9b22-40809746183a" x1="23.9" y1="14.54" x2="28.8" y2="16.6"/><path class="uuid-636a2e6d-b104-42bd-9b22-40809746183a" d="M45.12,16.93v12.21c0,2.47-1.76,5.87-4.26,5.87s-4.26-3.4-4.26-5.87v-12.21h8.51Z"/><line class="uuid-636a2e6d-b104-42bd-9b22-40809746183a" x1="40.86" y1="35.01" x2="40.86" y2="50.97"/><path class="uuid-636a2e6d-b104-42bd-9b22-40809746183a" d="M47.24,16.93h4.26v12.21c0,2.47-1.76,5.87-4.26,5.87-.79,0-1.51-.34-2.13-.89"/><line class="uuid-636a2e6d-b104-42bd-9b22-40809746183a" x1="47.24" y1="35.01" x2="47.24" y2="50.97"/><line class="uuid-636a2e6d-b104-42bd-9b22-40809746183a" x1="46.18" y1="50.97" x2="51.5" y2="50.97"/><line class="uuid-636a2e6d-b104-42bd-9b22-40809746183a" x1="36.61" y1="50.97" x2="45.12" y2="50.97"/></svg>