<?xml version="1.0" encoding="UTF-8"?><svg id="uuid-9e3dd74e-3435-440d-ab5c-76c091dd94d3" xmlns="http://www.w3.org/2000/svg" viewBox="0 0 53 53"><defs><style>.uuid-fa11ee3e-e8a6-459b-870f-5b7d31006bf6{fill:none;stroke:#007dc4;stroke-linecap:round;stroke-linejoin:round;stroke-width:2px;}</style></defs><path class="uuid-fa11ee3e-e8a6-459b-870f-5b7d31006bf6" d="M44.22,34.44c4.02,0,7.28,3.26,7.28,7.28s-3.26,7.28-7.28,7.28-7.28-3.26-7.28-7.28,3.26-7.28,7.28-7.28h0Z"/><path class="uuid-fa11ee3e-e8a6-459b-870f-5b7d31006bf6" d="M9.42,25.05l5.33,.85,3.37,16.9c.02,.2,.09,.39,.22,.56,.37,.51,1.09,.62,1.6,.24h0l7.68-4.88,16.34,3.1"/><path class="uuid-fa11ee3e-e8a6-459b-870f-5b7d31006bf6" d="M18.88,16.6h29.23c.62,0,.75,.63,.39,1.13l-11.92,16.3c-.36,.5-.52,1.22-1.13,1.13l-14.37-2.2c-.61-.09-1.03-.51-1.13-1.13l-2.2-14.1c-.1-.61,.51-1.13,1.13-1.13h0Z"/><path class="uuid-fa11ee3e-e8a6-459b-870f-5b7d31006bf6" d="M3.11,21.86l5.1,.7c.68,.09,1.16,.73,1.07,1.41l-.19,1.39c-.09,.68-.73,1.16-1.41,1.07l-5.1-.7c-.68-.09-1.16-.73-1.07-1.41l.19-1.39c.09-.68,.73-1.16,1.41-1.07h0Z"/><path class="uuid-fa11ee3e-e8a6-459b-870f-5b7d31006bf6" d="M20.66,15.88l11.36-11.45c.58-.58,1.52-.58,2.1,0l11.36,11.45"/></svg>