<?xml version="1.0" encoding="UTF-8"?><svg id="uuid-26f98287-d3f8-46ad-a8d1-4cf22d94d71a" xmlns="http://www.w3.org/2000/svg" viewBox="0 0 53 53"><defs><style>.uuid-6c179ed4-e6d5-4f9b-9d8e-a51e3100cae5{fill:none;stroke:#007dc4;stroke-linecap:round;stroke-linejoin:round;stroke-width:2px;}</style></defs><path class="uuid-6c179ed4-e6d5-4f9b-9d8e-a51e3100cae5" d="M47.04,36.32v-8.27c0-.83-.14-1.65-.43-2.43l-4.5-11.75c-.79-2.07-2.78-3.44-5-3.44H15.9c-2.22,0-4.21,1.37-5,3.44l-4.5,11.75c-.28,.78-.43,1.6-.43,2.43v8.27c0,.99,.8,1.79,1.79,1.79H45.25c.99,0,1.79-.8,1.79-1.79Z"/><path class="uuid-6c179ed4-e6d5-4f9b-9d8e-a51e3100cae5" d="M5.96,36.32v4.46c0,.99,.8,1.79,1.79,1.79h2.68c.99,0,1.79-.8,1.79-1.79v-2.68"/><path class="uuid-6c179ed4-e6d5-4f9b-9d8e-a51e3100cae5" d="M47.04,36.32v4.46c0,.99-.8,1.79-1.79,1.79h-2.68c-.99,0-1.79-.8-1.79-1.79v-2.68"/><path class="uuid-6c179ed4-e6d5-4f9b-9d8e-a51e3100cae5" d="M7.75,22.93l1.3,.43c.91,.3,1.86,.46,2.82,.46h29.24c.96,0,1.91-.15,2.82-.46l1.3-.43"/><path class="uuid-6c179ed4-e6d5-4f9b-9d8e-a51e3100cae5" d="M14.89,31.86h-3.57c-1.48,0-2.68-1.2-2.68-2.68,0-.49,.4-.89,.89-.89h3.57c1.48,0,2.68,1.2,2.68,2.68,0,.49-.4,.89-.89,.89Z"/><line class="uuid-6c179ed4-e6d5-4f9b-9d8e-a51e3100cae5" x1="33.64" y1="34.54" x2="19.36" y2="34.54"/><path class="uuid-6c179ed4-e6d5-4f9b-9d8e-a51e3100cae5" d="M41.68,31.86h-3.57c-.49,0-.89-.4-.89-.89,0-1.48,1.2-2.68,2.68-2.68h3.57c.49,0,.89,.4,.89,.89,0,1.48-1.2,2.68-2.68,2.68Z"/><path class="uuid-6c179ed4-e6d5-4f9b-9d8e-a51e3100cae5" d="M6.86,22.04H3.73c-1.23,0-2.23-1-2.23-2.23h0c0-.74,.6-1.34,1.34-1.34h2.68c.74,0,1.34,.6,1.34,1.34v2.23Z"/><path class="uuid-6c179ed4-e6d5-4f9b-9d8e-a51e3100cae5" d="M46.14,22.04h3.12c1.23,0,2.23-1,2.23-2.23h0c0-.74-.6-1.34-1.34-1.34h-2.68c-.74,0-1.34,.6-1.34,1.34v2.23Z"/></svg>